<svg width="20" height="20" viewBox="0 0 20 20" fill="none" xmlns="http://www.w3.org/2000/svg">
<path d="M14.7972 12.8467C14.8668 12.9361 14.9345 13.0274 15.0065 13.1145C15.413 13.6068 15.8203 14.0985 16.228 14.5897C16.4333 14.837 16.6401 15.0829 16.8464 15.3293C16.9568 15.4612 17.0661 15.5943 17.1793 15.7232C17.2034 15.7507 17.2457 15.7827 17.2737 15.7771C17.3262 15.7666 17.338 15.7098 17.3366 15.6535C17.3352 15.5971 17.3365 15.5405 17.3365 15.484C17.3366 11.2552 17.3366 7.02639 17.3366 2.79758C17.3366 2.53292 17.3366 2.53292 17.5798 2.53674C17.7148 2.53886 17.7259 2.55092 17.728 2.69857C17.7283 2.7174 17.728 2.73624 17.728 2.75508C17.728 7.45952 17.7283 12.164 17.7264 16.8684C17.7263 16.9748 17.7145 17.0854 17.6861 17.1866C17.6342 17.3716 17.4386 17.5621 17.2101 17.5482C17.0985 17.5414 16.9861 17.5444 16.8743 17.5483C16.8133 17.5504 16.7685 17.5296 16.7274 17.4798C16.3032 16.9668 15.8776 16.4553 15.4526 15.9431C15.2417 15.6888 15.0313 15.434 14.8086 15.167C14.7677 15.115 14.7412 15.073 14.7095 15.0364C14.6086 14.9203 14.5058 14.8063 14.3995 14.6824C14.3858 14.6576 14.3782 14.6401 14.3669 14.6264C14.1039 14.3094 13.8402 13.9931 13.5774 13.6761C13.173 13.1883 12.7698 12.6993 12.3647 12.2121C12.0522 11.8362 11.7368 11.4631 11.4241 11.0872C11.019 10.6001 10.6156 10.1113 10.211 9.62364C10.0202 9.39372 9.82784 9.16538 9.6373 8.93524C9.25626 8.47503 8.87641 8.01364 8.49519 7.5536C8.29012 7.30613 8.08247 7.06121 7.87731 6.81382C7.48725 6.34346 7.09806 5.87221 6.70866 5.40119C6.48656 5.13253 6.2652 4.86315 6.04256 4.59504C5.97311 4.51141 5.90289 4.42819 5.82814 4.35039C5.80344 4.32469 5.76102 4.29927 5.73094 4.30427C5.67949 4.31282 5.67905 4.37022 5.67907 4.41848C5.67907 4.42319 5.67898 4.4279 5.67899 4.43261C5.67994 4.76214 5.6809 5.09168 5.68146 5.43448C5.67982 6.16772 5.67815 6.88769 5.67846 7.60767C5.67847 7.64796 5.69475 7.68824 5.70345 7.72853C5.6948 7.78699 5.67864 7.84544 5.67859 7.90391C5.67678 9.9659 5.67648 12.0279 5.67599 14.0899C5.67592 14.4006 5.67743 14.7113 5.6757 15.022C5.67132 15.8078 5.66564 16.5935 5.66016 17.3793C5.65906 17.5356 5.64898 17.5458 5.50457 17.5472C5.48305 17.5474 5.46152 17.5473 5.43999 17.5472C5.27509 17.5464 5.26859 17.5397 5.26859 17.3527C5.26847 14.062 5.26852 10.7713 5.26841 7.48056C5.26841 7.39113 5.26705 7.3017 5.26698 7.18555C5.26704 6.4038 5.26646 5.64877 5.26587 4.89374C5.26676 4.32439 5.26623 3.75503 5.27005 3.1857C5.27064 3.0978 5.2794 3.00569 5.30484 2.92305C5.38347 2.66763 5.56278 2.52766 5.80968 2.51689C5.88702 2.51352 5.96536 2.52409 6.04188 2.51481C6.17528 2.49864 6.26466 2.56027 6.35158 2.66697C6.76624 3.17596 7.18716 3.67885 7.60598 4.18378C7.9439 4.59119 8.28208 4.99833 8.62 5.40574C9.04168 5.91415 9.46325 6.42265 9.88477 6.93121C10.211 7.32481 10.5374 7.71822 10.8631 8.11235C11.3099 8.653 11.7555 9.19485 12.2027 9.73501C12.4221 9.9999 12.6453 10.2609 12.8646 10.5259C13.228 10.9649 13.5893 11.4061 13.9523 11.8457C14.0704 11.9888 14.1901 12.1304 14.3104 12.2713C14.3332 12.298 14.3622 12.3185 14.4002 12.3529C14.4172 12.3816 14.4177 12.404 14.4281 12.4163C14.5503 12.5606 14.6739 12.7035 14.7972 12.8467Z" fill="#CF8C95"/>
<path d="M5.70974 7.73624C5.69467 7.68824 5.67839 7.64796 5.67838 7.60766C5.67807 6.88769 5.67974 6.16772 5.68907 5.43871C5.77267 5.51991 5.84853 5.60982 5.92367 5.70045C7.4093 7.49227 8.89479 9.28422 10.3804 11.076C11.5366 12.4704 12.6928 13.8647 13.8491 15.259C13.9821 15.4193 14.1141 15.5807 14.2504 15.7376C14.2731 15.7636 14.3224 15.7888 14.347 15.7786C14.3732 15.7678 14.3879 15.7158 14.4013 15.6791C14.4087 15.6586 14.4033 15.6326 14.4033 15.609C14.4034 15.3032 14.4036 14.9974 14.4037 14.6915C14.5057 14.8063 14.6085 14.9203 14.7094 15.0364C14.7411 15.073 14.7676 15.115 14.8009 15.1629C14.8041 15.7452 14.802 16.3192 14.8021 16.8932C14.8021 17.0231 14.7818 17.1466 14.7222 17.2591C14.6299 17.4331 14.4958 17.5426 14.307 17.5494C14.1611 17.5547 14.0149 17.5497 13.8688 17.5492C13.7797 17.4477 13.6885 17.3483 13.602 17.2442C12.7051 16.1646 11.809 15.0844 10.9127 14.0042C9.77647 12.6349 8.6404 11.2654 7.50399 9.89615C6.90832 9.17846 6.31208 8.46133 5.70974 7.73624Z" fill="#222222"/>
<path d="M5.25803 4.88896C5.26636 5.64879 5.26695 6.40382 5.26709 7.1732C5.10258 6.99479 4.93677 6.80376 4.77474 6.60895C4.15765 5.86699 3.54178 5.12381 2.92548 4.38106C2.91969 4.37409 2.91549 4.3641 2.90839 4.36012C2.87257 4.34003 2.83296 4.30112 2.80043 4.30697C2.74747 4.3165 2.73935 4.37752 2.74035 4.43237C2.74086 4.46061 2.74028 4.48887 2.74026 4.51712C2.73944 5.55309 2.73832 6.58906 2.73787 7.62503C2.73673 10.215 2.73602 12.8049 2.73485 15.3948C2.73455 16.0494 2.73316 16.7039 2.73224 17.3584C2.73221 17.3867 2.73248 17.415 2.73163 17.4432C2.72963 17.5102 2.69761 17.55 2.63662 17.553C2.56791 17.5564 2.49886 17.5557 2.43011 17.5525C2.3678 17.5497 2.3387 17.5065 2.33479 17.4418C2.33252 17.4043 2.33324 17.3665 2.33324 17.3288C2.33318 12.6386 2.33312 7.94847 2.33379 3.25829C2.3338 3.17855 2.33766 3.09796 2.34858 3.01924C2.37894 2.80022 2.55213 2.52319 2.86678 2.52536C2.89692 2.52556 2.92709 2.52454 2.95721 2.5255C3.06863 2.52908 3.19365 2.50021 3.28763 2.5465C3.3819 2.59293 3.44668 2.71305 3.52183 2.80342C4.09834 3.49665 4.67422 4.19051 5.25803 4.88896Z" fill="#222222"/>
<path d="M14.7988 12.834C14.6739 12.7035 14.5502 12.5606 14.4281 12.4163C14.4177 12.404 14.4171 12.3816 14.4084 12.3547C14.4052 10.6318 14.4056 8.91833 14.4058 7.20481C14.406 5.73607 14.4058 4.26734 14.4058 2.79861C14.4058 2.76566 14.4053 2.73269 14.4059 2.69975C14.4085 2.55493 14.4223 2.54002 14.5561 2.53837C14.5991 2.53784 14.6422 2.53657 14.6852 2.53874C14.7743 2.54324 14.7956 2.5675 14.8014 2.66732C14.8025 2.68607 14.8017 2.70497 14.8017 2.7238C14.8017 6.08023 14.8017 9.43666 14.8017 12.7931C14.8017 12.8025 14.8009 12.8119 14.7988 12.834Z" fill="#222222"/>
<path d="M19.0671 19.9717C18.1807 19.9788 17.3071 19.9858 16.4335 19.993C16.1624 19.9952 15.8913 19.9986 15.6202 20C15.4966 20.0006 15.4694 19.9735 15.4554 19.8422C15.4525 19.8142 15.452 19.7857 15.453 19.7576C15.459 19.5992 15.486 19.5698 15.63 19.5686C16.3874 19.5626 17.1448 19.5572 17.9022 19.5515C18.3798 19.5479 18.8576 19.5389 19.3352 19.5433C19.505 19.5449 19.6112 19.4128 19.6092 19.2331C19.5972 18.1698 19.5919 17.1064 19.5847 16.0431C19.5828 15.7654 19.5811 15.4878 19.5807 15.2101C19.5805 15.0869 19.5973 15.0676 19.7113 15.0482C19.7366 15.0439 19.7626 15.0408 19.7882 15.0416C19.946 15.0463 19.9733 15.0776 19.9743 15.2489C19.9827 16.6982 19.9913 18.1474 19.9997 19.5966C19.9999 19.6296 20.0003 19.6625 19.9997 19.6955C19.9964 19.8712 19.9149 19.9639 19.7514 19.9672C19.5277 19.9716 19.3039 19.9705 19.0671 19.9717Z" fill="#222222"/>
<path d="M0.000598976 2.70916C0.000575409 1.90415 0.000524062 1.11327 0.000608538 0.322394C0.000612583 0.28476 -0.00186616 0.246526 0.00315283 0.209602C0.0183798 0.097579 0.0992188 0.0138561 0.202743 0.00242513C0.241127 -0.00181293 0.280171 0.000792639 0.318914 0.000790689C1.66654 0.000721069 3.01416 0.000713526 4.36179 0.000694977C4.38762 0.000694765 4.41355 0.00220848 4.43927 0.000347696C4.49853 -0.00394017 4.52719 0.0343127 4.53725 0.0897659C4.54555 0.135494 4.54872 0.183212 4.54782 0.229902C4.54463 0.395732 4.51776 0.423547 4.36603 0.423561C3.15618 0.423671 1.94633 0.423614 0.73648 0.423639C0.697731 0.423639 0.658765 0.421148 0.620275 0.424683C0.488291 0.436806 0.407367 0.525841 0.398143 0.669615C0.394836 0.721162 0.396942 0.77314 0.39694 0.824921C0.396893 2.11481 0.396921 3.40469 0.396861 4.69458C0.396852 4.89029 0.3686 4.92034 0.187817 4.91689C0.162031 4.9164 0.13592 4.91573 0.110588 4.91106C0.0245484 4.8952 0.00228603 4.8684 0.00106239 4.7711C-0.000713196 4.62989 0.000597992 4.48865 0.000597695 4.34742C0.00059661 3.80604 0.000597594 3.26466 0.000598976 2.70916Z" fill="#222222"/>
</svg>
