<svg width="175" height="86" fill="none" xmlns="http://www.w3.org/2000/svg"><path d="M69.987 55.241c.33.384.65.777.99 1.151 1.923 2.117 3.85 4.232 5.778 6.344.97 1.063 1.949 2.12 2.924 3.18.522.567 1.04 1.14 1.575 1.694.114.118.314.256.447.232.248-.046.304-.29.297-.532-.007-.243 0-.486 0-.729V12.03c0-1.138 0-1.138 1.15-1.122.639.01.691.061.701.696v.243c0 20.229.002 40.458-.007 60.687 0 .458-.057.933-.191 1.368-.246.796-1.17 1.615-2.251 1.555-.528-.029-1.06-.016-1.589 0a.83.83 0 0 1-.695-.294c-2.006-2.206-4.019-4.405-6.029-6.608-.998-1.093-1.993-2.189-3.046-3.337-.193-.223-.319-.404-.469-.561-.477-.5-.963-.99-1.466-1.523-.065-.106-.1-.181-.154-.24-1.244-1.363-2.491-2.723-3.734-4.087-1.913-2.097-3.82-4.2-5.736-6.295-1.478-1.617-2.97-3.22-4.449-4.837-1.916-2.094-3.824-4.196-5.738-6.293-.902-.989-1.812-1.97-2.713-2.96-1.802-1.98-3.599-3.963-5.402-5.941-.97-1.065-1.952-2.118-2.922-3.182-1.845-2.022-3.686-4.048-5.528-6.074-1.05-1.155-2.097-2.313-3.15-3.466-.329-.36-.661-.718-1.014-1.052-.117-.11-.318-.22-.46-.199-.244.037-.246.284-.246.492v.06c.005 1.417.01 2.834.012 4.308-.008 3.153-.016 6.25-.014 9.345 0 .173.077.346.118.52-.041.251-.118.503-.118.754-.008 8.866-.01 17.733-.012 26.6 0 1.336.007 2.672-.002 4.008-.02 3.379-.047 6.757-.073 10.136-.005.672-.053.716-.736.722h-.305c-.78-.003-.811-.032-.811-.836v-42.45c0-.385-.007-.77-.008-1.27 0-3.36-.002-6.607-.005-9.854.004-2.448.002-4.896.02-7.344.003-.378.044-.774.164-1.13.372-1.098 1.22-1.7 2.388-1.746.366-.015.736.03 1.098-.01.631-.069 1.054.196 1.465.655 1.961 2.189 3.952 4.351 5.933 6.522l4.796 5.255c1.995 2.186 3.989 4.372 5.982 6.56 1.543 1.692 3.087 3.383 4.628 5.078 2.113 2.325 4.22 4.655 6.336 6.978 1.037 1.139 2.093 2.261 3.13 3.4 1.72 1.888 3.428 3.785 5.145 5.676a148.68 148.68 0 0 0 1.694 1.83c.108.115.245.203.424.35.08.124.083.22.133.273.577.62 1.162 1.235 1.745 1.851Z" fill="#CF8C95"/><path d="M115.772 40.845c-1.205 1.116-2.446 2.196-3.606 3.357-2.083 2.084-3.705 4.508-5.101 7.088-.385.713-.832 1.393-1.202 2.114-.277.537-.475 1.114-.706 1.675-.093.224-.164.459-.273.675-.298.597-.941.737-1.399.253a3.926 3.926 0 0 1-.71-1.113c-.298-.68-.323-1.423-.279-2.151.049-.786.17-1.567.258-2.35.01-.098.01-.197.02-.4-.195.217-.33.36-.457.51-1.061 1.257-2.142 2.495-3.42 3.546-1.238 1.017-2.599 1.81-4.149 2.259-.77.223-1.552.325-2.353.178-.872-.161-1.535-.608-1.978-1.38-.456-.798-.633-1.663-.633-2.566 0-1.118.138-2.21.506-3.282 1.002-2.918 2.138-5.777 3.715-8.438a28.4 28.4 0 0 1 2.102-3.052c.43-.547 1.006-1 1.578-1.41.553-.397 1.222-.556 1.916-.49.807.079 1.076.638.655 1.332-.042.069-.09.135-.143.196-1.869 2.172-3.26 4.642-4.515 7.193-.94 1.91-1.807 3.854-2.385 5.907-.18.637-.248 1.307-.331 1.966-.03.233.028.485.082.72.181.784.65 1.144 1.456 1.053.46-.05.926-.162 1.357-.328 1.155-.445 2.133-1.172 3.032-2.008 1.478-1.376 2.76-2.919 3.931-4.556.118-.165.237-.33.357-.493.843-1.145 1.6-2.335 2.189-3.638.492-1.087 1.086-2.129 1.648-3.185.67-1.26 1.655-2.249 2.791-3.094.701-.522 1.488-.832 2.385-.793.377.017.725.114 1.003.383.353.342.354.703-.051.965-.754.487-1.28 1.182-1.805 1.877-1.988 2.636-3.551 5.522-4.96 8.492-.31.653-.489 1.37-.721 2.059-.024.07-.003.156-.003.332.137-.156.234-.242.299-.346.535-.861 1.054-1.732 1.598-2.588 2.864-4.509 6.553-8.188 11.165-10.936.571-.34 1.175-.556 1.839-.593a2.78 2.78 0 0 1 .488.01c.794.099 1.096.629.743 1.336a6.105 6.105 0 0 1-.546.875c-2.301 3.126-3.687 6.597-4.033 10.467-.113 1.266.012 2.51.367 3.726.304 1.042.953 1.464 2.053 1.416 1.058-.047 1.981-.439 2.804-1.073a15.89 15.89 0 0 0 2.978-3.036c1.161-1.537 2.264-3.118 3.382-4.687.14-.195.235-.424.334-.645.999-2.233 2.254-4.308 3.841-6.178.816-.963 1.723-1.835 2.761-2.565.911-.64 1.907-1.061 3.025-1.216 2.493-.344 3.841 1.014 4.31 3.046.268 1.16.124 2.299-.286 3.403-1.257 3.385-4.743 5.978-8.723 5.693-.743-.053-1.476-.253-2.281-.397-.03.052-.112.161-.166.282a11.236 11.236 0 0 0-.99 4.047c-.043.861.079 1.692.443 2.486.535 1.169 1.443 1.842 2.711 2.005 2.393.308 4.616-.167 6.636-1.504a18.002 18.002 0 0 0 4.189-3.873c1.133-1.43 2.218-2.9 3.311-4.362.179-.24.313-.52.427-.799 1.59-3.881 3.241-7.734 5.353-11.372 1.981-3.414 4.214-6.642 7.009-9.46 1.874-1.89 3.918-3.541 6.418-4.555 1.172-.476 2.373-.855 3.652-.924.864-.046 1.714.026 2.505.405.885.424 1.522 1.073 1.759 2.052.028.116.048.238.051.357.014.45-.16.73-.491.803-.321.072-.76-.091-.842-.446-.191-.824-.821-.908-1.476-1.002-1.314-.189-2.549.098-3.743.622-1.322.582-2.433 1.464-3.49 2.423-2.24 2.031-4.117 4.369-5.846 6.833a82.885 82.885 0 0 0-7.922 14.002c-.703 1.582-1.091 3.3-1.62 4.958-.017.053-.002.116.08.232.104-.147.213-.291.311-.442a49.35 49.35 0 0 1 6.165-7.676c1.833-1.864 3.865-3.472 6.14-4.773a3.748 3.748 0 0 1 2.048-.498c.9.036 1.243.757.809 1.425-.188.289-.358.59-.561.867-2.176 2.975-3.535 6.27-3.939 9.938-.156 1.423-.092 2.831.315 4.212.331 1.12.945 1.544 2.125 1.479.792-.045 1.504-.33 2.169-.746.905-.567 1.673-1.299 2.365-2.094a53.068 53.068 0 0 0 2.402-2.984c.804-1.07 1.549-2.184 2.321-3.278.198-.281.376-.61.814-.488.309.087.486.39.408.915-.063.428-.176.894-.412 1.247-1.568 2.343-3.147 4.683-5.173 6.675-.9.884-1.851 1.713-3.019 2.243-1.212.55-2.477.786-3.807.58-1.204-.188-2.114-.805-2.71-1.865-.693-1.23-.968-2.569-.993-3.965-.039-2.188.366-4.31 1.018-6.388.236-.753.526-1.488.79-2.233.058-.163.107-.33.194-.597-.196.116-.304.16-.388.232-2.667 2.28-5.1 4.774-7.003 7.737-.843 1.313-1.658 2.645-2.48 3.972-.43.694-.75 1.432-.906 2.24a4.196 4.196 0 0 1-.286.924c-.253.56-.657.715-1.189.409a2.17 2.17 0 0 1-.717-.71c-.308-.488-.405-1.052-.427-1.628-.046-1.224.144-2.42.413-3.61.026-.117.057-.235.079-.354.006-.037-.013-.078-.04-.221-.191.226-.346.399-.49.58-1.43 1.786-3.059 3.358-4.992 4.608-1.773 1.147-3.712 1.713-5.827 1.724-1.208.007-2.404-.052-3.563-.421-2.357-.75-3.654-2.396-4.026-4.79-.093-.592-.09-1.2-.14-1.928-.193.253-.337.43-.469.616-1.084 1.53-2.317 2.924-3.792 4.099a7.4 7.4 0 0 1-4.319 1.64c-2.044.109-3.44-.75-4.232-2.62a8.2 8.2 0 0 1-.63-2.83c-.115-2.419.318-4.757 1.056-7.047.249-.77.547-1.524.855-2.355.03-.136.026-.202.023-.267l-.167.12Zm18.391.367-1.757 2.925c.618.36 1.209.353 1.79.269 2.599-.378 4.504-1.777 5.761-4.031.561-1.006.791-2.123.58-3.284-.145-.793-.7-1.144-1.473-.917-.325.095-.649.25-.925.444-.38.267-.733.58-1.066.903-1.112 1.081-2 2.34-2.91 3.691Zm-28.603 9.132-.062-.005c.009.014.019.028.062.005ZM27.006 33.266c-.071-.206-.148-.38-.148-.553-.002-3.096.006-6.192.05-9.326.395.349.754.735 1.11 1.125l21.08 23.115c5.467 5.996 10.936 11.991 16.405 17.987.63.69 1.254 1.383 1.898 2.058.108.112.34.22.457.176.124-.046.194-.27.257-.428.035-.088.01-.2.01-.301l.001-3.945c.483.493.97.984 1.446 1.483.15.157.276.338.433.544.015 2.504.005 4.972.006 7.44 0 .558-.096 1.09-.378 1.573-.437.748-1.071 1.22-1.964 1.249-.69.022-1.382 0-2.073-.001-.42-.437-.853-.864-1.262-1.312-4.242-4.642-8.48-9.287-12.72-13.932L35.493 42.553c-2.817-3.086-5.637-6.17-8.486-9.287ZM24.87 21.023c.039 3.267.042 6.513.042 9.822a65.683 65.683 0 0 1-2.328-2.427c-2.92-3.19-5.832-6.386-8.747-9.58-.027-.03-.047-.072-.08-.09-.17-.086-.358-.253-.511-.228-.251.04-.29.303-.285.54.003.12 0 .242 0 .364-.004 4.454-.01 8.909-.011 13.364-.006 11.136-.01 22.273-.015 33.41-.001 2.814-.008 5.629-.012 8.443 0 .122.001.243-.003.365-.01.288-.16.459-.45.472-.324.015-.65.011-.976-.002-.295-.012-.432-.198-.45-.476-.012-.162-.008-.324-.008-.486 0-20.168 0-40.336.002-60.503 0-.343.019-.69.07-1.028.144-.942.963-2.133 2.451-2.124.143 0 .286-.004.428 0 .527.016 1.118-.108 1.563.09.446.2.752.717 1.108 1.106 2.726 2.98 5.45 5.964 8.211 8.968ZM69.995 55.187a41.243 41.243 0 0 1-1.753-1.797c-.05-.053-.052-.149-.094-.265-.015-7.408-.013-14.776-.012-22.144V12.034c0-.142-.002-.283 0-.425.013-.623.078-.687.71-.694.204-.002.408-.008.612.002.421.02.522.123.55.553.005.08 0 .162 0 .242v43.299c0 .04-.003.08-.013.175ZM90.183 85.878l-12.456.092c-1.282.01-2.565.024-3.847.03-.585.003-.713-.114-.78-.679a2.309 2.309 0 0 1-.01-.363c.028-.681.155-.808.836-.813 3.583-.026 7.165-.05 10.747-.074 2.26-.015 4.52-.054 6.778-.035.803.007 1.306-.561 1.296-1.334-.056-4.572-.081-9.145-.116-13.717a602.206 602.206 0 0 1-.019-3.581c0-.53.08-.613.618-.697.12-.018.243-.032.364-.028.746.02.875.155.88.891l.12 18.695c.001.142.003.284 0 .425-.015.756-.4 1.155-1.174 1.169-1.058.019-2.117.014-3.237.02ZM.003 11.65V1.385c0-.162-.012-.326.012-.485C.087.42.469.06.959.011c.181-.019.366-.008.55-.008H20.63c.123 0 .245.006.367-.002.28-.018.416.147.463.385.04.197.054.402.05.603-.015.713-.142.832-.86.832H3.483c-.183 0-.367-.01-.55.005-.623.052-1.006.435-1.05 1.053-.016.222-.006.446-.006.668v16.64c0 .841-.134.97-.989.956a2.485 2.485 0 0 1-.365-.025c-.407-.069-.512-.184-.518-.602-.008-.607-.002-1.215-.002-1.822v-7.045ZM100.451 29.01c-.358-.9-.088-1.586.594-2.14.791-.643 1.644-1.186 2.628-1.492a2.47 2.47 0 0 1 .592-.125c.656-.035 1.043.334 1.026.983a2.107 2.107 0 0 1-.124.711c-.307.768-.581 1.559-.988 2.274-.438.771-1.242 1.007-2.093.998-.796-.009-1.323-.443-1.635-1.21Z" fill="#222"/></svg>