<svg width="175" height="86" viewBox="0 0 175 86" fill="none" xmlns="http://www.w3.org/2000/svg">
<path d="M69.9871 55.241C70.3165 55.6253 70.6367 56.0179 70.977 56.3924C72.8999 58.5095 74.8261 60.6237 76.7546 62.7358C77.7257 63.7993 78.7036 64.8567 79.6792 65.9162C80.2015 66.4833 80.7184 67.0556 81.254 67.6101C81.3679 67.7279 81.5681 67.8657 81.7005 67.8416C81.9489 67.7964 82.0045 67.5523 81.998 67.3104C81.9914 67.0676 81.9977 66.8244 81.9977 66.5814C81.9977 48.3975 81.9977 30.2136 81.9978 12.0296C81.9978 10.8916 81.9979 10.8916 83.1481 10.908C83.7869 10.9171 83.8393 10.969 83.8491 11.6039C83.8504 11.6849 83.8493 11.7659 83.8493 11.8469C83.8493 32.076 83.8505 52.3051 83.8415 72.5342C83.8413 72.9917 83.7852 73.4672 83.6509 73.9025C83.4053 74.6981 82.4802 75.5172 81.3997 75.4573C80.8717 75.4281 80.3403 75.441 79.8112 75.4577C79.523 75.4668 79.3109 75.3775 79.1163 75.1635C77.1103 72.9573 75.097 70.7578 73.087 68.5553C72.0893 67.462 71.0943 66.3663 70.0412 65.2181C69.8476 64.9946 69.7223 64.8139 69.5721 64.6567C69.0951 64.1576 68.6088 63.6673 68.1059 63.1344C68.0414 63.0277 68.0055 62.9527 67.9517 62.8938C66.708 61.5306 65.4609 60.1706 64.2175 58.8072C62.3048 56.7096 60.3978 54.6069 58.4821 52.5121C57.0038 50.8956 55.5119 49.2913 54.0333 47.6751C52.117 45.5805 50.2088 43.4787 48.2952 41.3817C47.3929 40.3931 46.4831 39.4112 45.5819 38.4216C43.7797 36.4427 41.9831 34.4587 40.18 32.4806C39.21 31.4164 38.2279 30.3633 37.2576 29.2995C35.4126 27.2769 33.5719 25.2506 31.7301 23.2252C30.6796 22.07 29.6326 20.9116 28.5796 19.7587C28.2511 19.3991 27.919 19.0413 27.5654 18.7067C27.4486 18.5962 27.2479 18.4869 27.1057 18.5084C26.8624 18.5452 26.8602 18.792 26.8604 18.9995C26.8604 19.0198 26.8599 19.04 26.86 19.0603C26.8645 20.4773 26.869 21.8943 26.8717 23.3683C26.8639 26.5213 26.856 29.6172 26.8575 32.713C26.8575 32.8863 26.9345 33.0595 26.9757 33.2328C26.9348 33.4841 26.8583 33.7355 26.8581 33.9869C26.8495 42.8535 26.8481 51.7201 26.8458 60.5866C26.8455 61.9227 26.8526 63.2588 26.8444 64.5948C26.8237 67.9736 26.7968 71.3524 26.7709 74.7312C26.7657 75.4034 26.718 75.4471 26.035 75.453C25.9332 75.4539 25.8314 75.4536 25.7296 75.4531C24.9496 75.4497 24.9189 75.4207 24.9189 74.6169C24.9183 60.4667 24.9185 46.3166 24.918 32.1665C24.918 31.7819 24.9116 31.3974 24.9112 30.8979C24.9116 27.5364 24.9088 24.2898 24.906 21.0432C24.9102 18.5949 24.9077 16.1467 24.9258 13.6986C24.9286 13.3206 24.97 12.9245 25.0903 12.5692C25.4622 11.4709 26.3103 10.869 27.4781 10.8227C27.8439 10.8082 28.2145 10.8536 28.5764 10.8137C29.2073 10.7442 29.6301 11.0092 30.0412 11.468C32.0024 13.6567 33.9933 15.8191 35.9742 17.9903C37.5725 19.7422 39.172 21.4929 40.7703 23.2448C42.7647 25.4309 44.7587 27.6175 46.7524 29.8043C48.2954 31.4968 49.8394 33.1884 51.3799 34.8832C53.493 37.208 55.6004 39.5379 57.7158 41.8606C58.7532 42.9996 59.809 44.1221 60.8461 45.2613C62.5651 47.1494 64.2742 49.0463 65.9907 50.9366C66.5495 51.552 67.1158 52.1607 67.6848 52.7667C67.7927 52.8816 67.9296 52.9696 68.1093 53.1176C68.1896 53.2411 68.1922 53.3371 68.2415 53.3901C68.8193 54.0108 69.4041 54.625 69.9871 55.241Z" fill="#CF8C95"/>
<path d="M115.772 40.8447C114.567 41.9612 113.326 43.0414 112.165 44.2023C110.083 46.2864 108.461 48.7104 107.065 51.2903C106.68 52.003 106.232 52.6834 105.863 53.4035C105.586 53.9412 105.388 54.5185 105.157 55.079C105.064 55.3034 104.993 55.5377 104.884 55.7541C104.586 56.3507 103.943 56.4906 103.485 56.007C103.187 55.6916 102.95 55.2933 102.775 54.8936C102.477 54.2136 102.452 53.4709 102.496 52.743C102.544 51.9573 102.666 51.176 102.754 50.3926C102.764 50.2951 102.764 50.1963 102.774 49.9927C102.579 50.2102 102.444 50.3529 102.317 50.5027C101.256 51.7599 100.175 52.998 98.897 54.0486C97.6589 55.066 96.2981 55.8587 94.748 56.3077C93.9771 56.531 93.1964 56.6335 92.3952 56.4857C91.5225 56.3248 90.8595 55.8783 90.417 55.1051C89.9608 54.3077 89.7842 53.4426 89.7837 52.5398C89.7831 51.4219 89.9222 50.3303 90.2903 49.2578C91.2916 46.34 92.4279 43.481 94.0052 40.8198C94.6337 39.7593 95.3444 38.7382 96.1065 37.7681C96.5361 37.2212 97.1131 36.7686 97.6851 36.3581C98.2384 35.961 98.9075 35.8017 99.601 35.8689C100.408 35.9471 100.677 36.5064 100.256 37.1999C100.214 37.2689 100.165 37.3347 100.113 37.396C98.244 39.5679 96.8533 42.0379 95.598 44.5888C94.658 46.499 93.7912 48.4433 93.2126 50.4961C93.0332 51.1327 92.9645 51.8028 92.8814 52.4621C92.852 52.6952 92.9099 52.9466 92.9641 53.1814C93.145 53.9657 93.6131 54.3257 94.4199 54.2356C94.8796 54.1842 95.3455 54.0727 95.7768 53.9066C96.932 53.4618 97.9096 52.7348 98.8086 51.8987C100.287 50.5234 101.569 48.9801 102.74 47.3428C102.858 47.1778 102.977 47.0135 103.097 46.8501C103.94 45.7045 104.697 44.5146 105.286 43.2121C105.778 42.1248 106.372 41.083 106.934 40.0273C107.604 38.7664 108.589 37.778 109.725 36.9332C110.426 36.4116 111.213 36.1006 112.11 36.1403C112.487 36.157 112.834 36.2536 113.113 36.5233C113.466 36.8648 113.467 37.2256 113.061 37.4876C112.308 37.975 111.782 38.6697 111.257 39.3651C109.269 42.0015 107.706 44.8869 106.297 47.8566C105.987 48.5103 105.808 49.2262 105.576 49.9156C105.552 49.9861 105.573 50.0715 105.573 50.2485C105.71 50.0915 105.807 50.0064 105.872 49.9017C106.407 49.0409 106.926 48.1698 107.469 47.3143C110.334 42.805 114.023 39.1259 118.635 36.3782C119.205 36.0385 119.809 35.8216 120.474 35.7854C120.636 35.7766 120.801 35.776 120.961 35.7958C121.756 35.8938 122.058 36.424 121.705 37.1308C121.552 37.4371 121.362 37.7294 121.159 38.0059C118.858 41.1316 117.471 44.6035 117.126 48.4733C117.013 49.7388 117.138 50.9824 117.493 52.1987C117.796 53.241 118.446 53.6631 119.546 53.6146C120.604 53.568 121.527 53.1761 122.35 52.5421C123.483 51.6685 124.472 50.6418 125.328 49.5064C126.489 47.9686 127.592 46.3879 128.71 44.8194C128.85 44.6239 128.945 44.3949 129.044 44.1739C130.043 41.9413 131.298 39.8658 132.885 37.9957C133.701 37.0329 134.608 36.1613 135.646 35.4315C136.557 34.7902 137.553 34.3695 138.671 34.2151C141.164 33.8706 142.511 35.2288 142.981 37.2612C143.249 38.4204 143.104 39.56 142.695 40.6639C141.438 44.0494 137.952 46.6422 133.972 46.3571C133.229 46.3038 132.496 46.1043 131.691 45.9603C131.66 46.0118 131.579 46.1211 131.525 46.2424C130.948 47.5315 130.606 48.8786 130.535 50.2894C130.492 51.1501 130.614 51.9811 130.978 52.7752C131.513 53.9437 132.421 54.6166 133.689 54.78C136.082 55.0884 138.305 54.6127 140.325 53.2756C141.933 52.2113 143.324 50.9071 144.514 49.4033C145.647 47.9722 146.732 46.5035 147.825 45.0413C148.004 44.8018 148.138 44.5208 148.252 44.2424C149.842 40.3609 151.493 36.5083 153.604 32.8695C155.586 29.4559 157.819 26.228 160.614 23.4097C162.487 21.5204 164.532 19.8686 167.031 18.8545C168.204 18.3787 169.405 17.9996 170.684 17.9315C171.548 17.8855 172.398 17.957 173.189 18.336C174.074 18.76 174.711 19.4086 174.948 20.3876C174.976 20.5044 174.995 20.6257 174.999 20.7455C175.013 21.1952 174.838 21.4746 174.508 21.5481C174.187 21.6196 173.748 21.4568 173.666 21.1018C173.475 20.2784 172.845 20.1939 172.19 20.1C170.876 19.9114 169.641 20.1978 168.447 20.7225C167.125 21.3037 166.014 22.1865 164.957 23.1451C162.717 25.1761 160.84 27.5138 159.111 29.9777C156.015 34.3911 153.371 39.0635 151.188 43.9803C150.486 45.5616 150.098 47.2806 149.569 48.9375C149.552 48.9907 149.567 49.0539 149.649 49.1705C149.753 49.0231 149.862 48.879 149.96 48.7279C151.759 45.9657 153.812 43.4063 156.125 41.0522C157.958 39.1876 159.99 37.5798 162.265 36.2788C162.902 35.9151 163.584 35.7523 164.312 35.7812C165.213 35.8169 165.556 36.5379 165.121 37.2061C164.934 37.4946 164.764 37.7958 164.561 38.0732C162.385 41.0486 161.025 44.3423 160.622 48.0113C160.466 49.4345 160.53 50.8425 160.937 52.2226C161.268 53.3433 161.882 53.7671 163.062 53.7015C163.854 53.6574 164.566 53.3719 165.231 52.9559C166.136 52.3891 166.903 51.6573 167.596 50.862C168.434 49.899 169.232 48.8985 169.998 47.8779C170.802 46.8077 171.547 45.6942 172.319 44.6003C172.517 44.3189 172.695 43.9893 173.133 44.1123C173.442 44.1992 173.619 44.5025 173.541 45.0266C173.478 45.4556 173.365 45.9208 173.129 46.2739C171.561 48.6173 169.982 50.957 167.956 52.9485C167.056 53.8327 166.105 54.6623 164.937 55.1923C163.725 55.7423 162.46 55.9783 161.13 55.7712C159.926 55.5838 159.016 54.9669 158.42 53.9073C157.727 52.6762 157.452 51.3382 157.427 49.9423C157.388 47.7541 157.793 45.6325 158.445 43.5538C158.681 42.8013 158.971 42.0656 159.235 41.3215C159.292 41.1582 159.342 40.9919 159.429 40.7237C159.233 40.8401 159.125 40.8845 159.041 40.9561C156.374 43.2368 153.941 45.7301 152.038 48.6931C151.194 50.0063 150.38 51.338 149.558 52.6646C149.127 53.3588 148.808 54.0973 148.652 54.905C148.591 55.2203 148.498 55.5371 148.366 55.8294C148.113 56.3891 147.709 56.5437 147.177 56.2377C146.892 56.0744 146.636 55.8059 146.46 55.5271C146.152 55.0404 146.055 54.4758 146.033 53.9004C145.987 52.6759 146.177 51.4792 146.446 50.2909C146.472 50.1727 146.503 50.0553 146.524 49.9361C146.531 49.8993 146.512 49.858 146.485 49.7148C146.294 49.9408 146.139 50.1137 145.995 50.2943C144.565 52.0813 142.936 53.653 141.003 54.9032C139.23 56.0502 137.29 56.6157 135.176 56.6273C133.968 56.6339 132.772 56.575 131.613 56.206C129.256 55.4556 127.959 53.8097 127.587 51.4169C127.494 50.8239 127.497 50.2163 127.447 49.4884C127.254 49.7412 127.11 49.918 126.978 50.1037C125.894 51.6348 124.661 53.0281 123.186 54.2025C121.921 55.2095 120.485 55.7561 118.867 55.8424C116.823 55.9516 115.427 55.0931 114.635 53.2239C114.252 52.3192 114.052 51.3743 114.005 50.3937C113.89 47.9745 114.323 45.6363 115.061 43.3458C115.309 42.576 115.608 41.8222 115.916 40.9906C115.946 40.8548 115.942 40.7894 115.939 40.7241C115.883 40.7643 115.828 40.8045 115.772 40.8447ZM134.163 41.2121C133.581 42.1804 133 43.1487 132.406 44.1369C133.024 44.4975 133.615 44.4899 134.196 44.4055C136.795 44.0279 138.7 42.6288 139.957 40.3749C140.518 39.369 140.748 38.2523 140.537 37.0909C140.392 36.2984 139.837 35.9471 139.064 36.1738C138.739 36.2691 138.415 36.4238 138.139 36.6181C137.759 36.8849 137.406 37.1973 137.073 37.5214C135.961 38.6021 135.073 39.8616 134.163 41.2121ZM105.56 50.3443C105.539 50.3427 105.519 50.341 105.498 50.3393C105.507 50.353 105.517 50.3666 105.56 50.3443Z" fill="#FDFDFD"/>
<path d="M27.0059 33.266C26.9346 33.0596 26.8577 32.8864 26.8576 32.7131C26.8561 29.6173 26.864 26.5214 26.9081 23.3866C27.3036 23.7358 27.6624 24.1224 28.0178 24.5121C35.0445 32.2169 42.0705 39.9223 49.0972 47.6272C54.5655 53.6231 60.0343 59.6186 65.5033 65.6139C66.1323 66.3034 66.7568 66.9971 67.4016 67.6717C67.5087 67.7837 67.742 67.8921 67.8584 67.8483C67.9822 67.8017 68.0519 67.5783 68.115 67.4202C68.1501 67.3324 68.1244 67.2203 68.1245 67.1191C68.1253 65.804 68.1257 64.4888 68.1263 63.1737C68.609 63.6674 69.0952 64.1577 69.5722 64.6568C69.7224 64.814 69.8477 64.9947 70.0053 65.2006C70.02 67.7047 70.0101 70.1728 70.0107 72.6409C70.0109 73.1996 69.9148 73.7307 69.6327 74.2144C69.1963 74.9625 68.5621 75.4333 67.6692 75.4627C66.979 75.4855 66.2874 75.4638 65.5964 75.4619C65.1752 75.0252 64.7435 74.5979 64.3344 74.1502C60.0925 69.5082 55.854 64.863 51.6149 60.2185C46.2407 54.3302 40.8673 48.4412 35.4923 42.5537C32.6749 39.4676 29.8549 36.3839 27.0059 33.266Z" fill="#FDFDFD"/>
<path d="M24.8693 21.0224C24.9087 24.2896 24.9115 27.5362 24.9122 30.8446C24.134 30.0775 23.3498 29.256 22.5835 28.4183C19.6647 25.2279 16.7518 22.0322 13.8368 18.8384C13.8095 18.8084 13.7896 18.7655 13.756 18.7483C13.5866 18.6619 13.3993 18.4946 13.2454 18.5198C12.9949 18.5608 12.9565 18.8231 12.9612 19.059C12.9637 19.1804 12.9609 19.302 12.9608 19.4235C12.9569 23.8781 12.9516 28.3328 12.9495 32.7875C12.9441 43.9242 12.9407 55.0609 12.9352 66.1977C12.9338 69.0122 12.9272 71.8267 12.9229 74.6411C12.9227 74.7626 12.924 74.8842 12.92 75.0056C12.9105 75.2939 12.7591 75.4649 12.4706 75.4779C12.1456 75.4924 11.819 75.4893 11.4939 75.4758C11.1991 75.4635 11.0615 75.2777 11.043 74.9996C11.0323 74.8382 11.0357 74.6758 11.0357 74.5138C11.0354 54.346 11.0351 34.1782 11.0383 14.0104C11.0383 13.6676 11.0566 13.3211 11.1082 12.9825C11.2518 12.0408 12.071 10.8495 13.5592 10.8588C13.7018 10.8597 13.8445 10.8553 13.9869 10.8595C14.5139 10.8749 15.1052 10.7507 15.5497 10.9497C15.9956 11.1494 16.302 11.6659 16.6575 12.0545C19.3842 15.0354 22.108 18.019 24.8693 21.0224Z" fill="#FDFDFD"/>
<path d="M69.9949 55.1865C69.404 54.6252 68.8192 54.011 68.2414 53.3903C68.1921 53.3373 68.1895 53.2413 68.1484 53.1253C68.133 45.7172 68.1351 38.349 68.136 30.9809C68.1367 24.6653 68.1361 18.3498 68.1361 12.0342C68.1361 11.8925 68.1339 11.7508 68.1366 11.6091C68.1487 10.9864 68.2142 10.9223 68.8467 10.9152C69.0503 10.9129 69.2543 10.9074 69.4575 10.9168C69.8789 10.9361 69.9795 11.0404 70.0071 11.4697C70.0123 11.5503 70.0084 11.6315 70.0084 11.7125C70.0086 26.1452 70.0087 40.5779 70.0085 55.0106C70.0085 55.051 70.0048 55.0914 69.9949 55.1865Z" fill="#FDFDFD"/>
<path d="M90.1835 85.8784C85.9907 85.9088 81.859 85.939 77.7272 85.9698C76.4449 85.9794 75.1627 85.994 73.8804 86C73.2955 86.0027 73.1672 85.8859 73.101 85.3213C73.087 85.2012 73.0845 85.0787 73.0895 84.9578C73.1177 84.2766 73.2456 84.1499 73.9266 84.145C77.5089 84.1193 81.0911 84.0959 84.6734 84.0713C86.9327 84.0558 89.1923 84.017 91.4513 84.0362C92.2544 84.043 92.7567 83.4748 92.7471 82.7021C92.6907 78.13 92.6657 73.5574 92.6314 68.9851C92.6224 67.7912 92.6144 66.5974 92.6126 65.4036C92.6118 64.8737 92.6912 64.7906 93.2301 64.7074C93.3501 64.6888 93.4731 64.6754 93.5942 64.6787C94.3404 64.6991 94.4694 64.8336 94.4741 65.5703C94.5139 71.802 94.5544 78.0337 94.5946 84.2654C94.5955 84.4071 94.597 84.5488 94.5941 84.6904C94.579 85.4463 94.1933 85.8449 93.4201 85.8587C92.3618 85.8777 91.3031 85.873 90.1835 85.8784Z" fill="#FDFDFD"/>
<path d="M0.00283303 11.6494C0.00272156 8.18787 0.0024787 4.78709 0.00287825 1.3863C0.00289738 1.22447 -0.00882651 1.06006 0.0149122 0.90129C0.0869325 0.41959 0.469283 0.0595812 0.958931 0.0104281C1.14048 -0.00779563 1.32515 0.00340835 1.50839 0.00339997C7.88236 0.0031006 14.2563 0.00306817 20.6303 0.0029884C20.7525 0.00298749 20.8751 0.0094965 20.9968 0.0014951C21.2771 -0.0169427 21.4126 0.147545 21.4602 0.385994C21.4995 0.582623 21.5144 0.787812 21.5102 0.988579C21.4951 1.70165 21.368 1.82126 20.6503 1.82132C14.928 1.82179 9.20571 1.82154 3.48339 1.82165C3.30012 1.82165 3.11582 1.81094 2.93376 1.82614C2.30951 1.87827 1.92676 2.26112 1.88313 2.87935C1.86749 3.101 1.87745 3.32451 1.87744 3.54717C1.87722 9.09369 1.87735 14.6402 1.87707 20.1867C1.87702 21.0283 1.7434 21.1575 0.888335 21.1427C0.766372 21.1406 0.642871 21.1377 0.523058 21.1176C0.116109 21.0494 0.0108124 20.9342 0.00502487 20.5157C-0.00337326 19.9086 0.00282837 19.3012 0.00282697 18.6939C0.00282183 16.366 0.00282649 14.0381 0.00283303 11.6494Z" fill="#FDFDFD"/>
<path d="M100.451 29.0098C100.093 28.1105 100.364 27.4244 101.045 26.8699C101.836 26.2269 102.689 25.6845 103.673 25.3779C103.865 25.3181 104.066 25.2633 104.265 25.2527C104.921 25.2175 105.308 25.5867 105.291 26.2356C105.284 26.4746 105.255 26.7277 105.167 26.9472C104.86 27.7148 104.586 28.506 104.18 29.2211C103.741 29.9924 102.938 30.2281 102.086 30.219C101.29 30.2104 100.763 29.7759 100.451 29.0098Z" fill="#FDFDFD"/>
</svg>
